<?xml version="1.0" encoding="UTF-8" standalone="no"?>
<!-- Created with Inkscape (http://www.inkscape.org/) -->

<svg
   width="1920"
   height="1920"
   viewBox="0 0 507.99999 508"
   version="1.1"
   id="svg1"
   xml:space="preserve"
   inkscape:version="1.4.2 (ebf0e940d0, 2025-05-08)"
   sodipodi:docname="Italien.svg"
   xmlns:inkscape="http://www.inkscape.org/namespaces/inkscape"
   xmlns:sodipodi="http://sodipodi.sourceforge.net/DTD/sodipodi-0.dtd"
   xmlns="http://www.w3.org/2000/svg"
   xmlns:svg="http://www.w3.org/2000/svg"><sodipodi:namedview
     id="namedview1"
     pagecolor="#ffffff"
     bordercolor="#000000"
     borderopacity="0.25"
     inkscape:showpageshadow="2"
     inkscape:pageopacity="0.0"
     inkscape:pagecheckerboard="0"
     inkscape:deskcolor="#d1d1d1"
     inkscape:document-units="mm"
     inkscape:export-bgcolor="#ffffff00"
     inkscape:zoom="0.34597355"
     inkscape:cx="1023.1996"
     inkscape:cy="789.07766"
     inkscape:window-width="1205"
     inkscape:window-height="1368"
     inkscape:window-x="2235"
     inkscape:window-y="0"
     inkscape:window-maximized="0"
     inkscape:current-layer="layer2" /><defs
     id="defs1" /><g
     inkscape:groupmode="layer"
     id="layer2"
     inkscape:label="Ebene 2"><path
       id="path1"
       style="fill:#000000;stroke-width:0.264583"
       d="M 243.00997 9.1999552 L 241.10983 9.6299032 L 236.1799 12.139827 L 233.41004 13.00024 L 232.19978 13.69012 L 231.27012 13.69012 L 230.84017 12.649874 L 231.61997 11.270113 L 230.67016 11.180196 C 230.67016 11.180196 229.0301 11.089762 228.6801 11.089762 C 228.3301 11.089762 223.32022 12.729972 223.32022 12.729972 L 222.27997 13.50977 L 222.70992 14.460099 L 222.5399 15.669845 L 221.93994 16.020211 L 219.86978 14.720032 L 216.92991 13.419853 C 216.92991 13.419853 215.19975 14.370182 214.85975 14.370182 C 214.50975 14.370182 212.60976 15.579928 212.60976 15.579928 L 212.34983 18.089852 L 212.7002 20.419942 L 212.17981 21.720121 L 211.14008 22.410002 L 208.12011 22.759851 L 206.13005 23.359814 L 203.11008 22.580017 L 201.72981 20.84989 L 200.35004 18.599898 L 198.70983 17.740002 L 196.0299 18.089852 L 193.7799 19.390031 L 191.97019 21.38009 L 191.18988 22.679753 L 190.67002 24.06003 L 190.32017 25.269775 L 190.32017 26.650053 L 190.84003 27.599866 L 192.04978 28.640112 L 192.14021 29.849858 L 192.31023 31.150037 L 191.01005 32.710148 L 189.01999 33.659961 L 187.64023 33.659961 L 186.59998 32.710148 L 186.08011 29.509827 L 185.2998 27.870133 L 182.61986 27.27017 L 179.42006 28.649931 L 178.30023 30.720089 L 177.3499 32.450216 L 176.83003 35.65002 L 177.00005 37.120215 L 178.80976 37.64008 L 180.36987 37.989929 L 181.15018 38.589893 L 180.89025 40.060087 L 179.50997 41.960229 L 178.20979 43.519824 L 180.6298 44.730086 L 181.92998 46.539795 L 181.33002 48.099906 L 179.08003 48.880221 L 177.08997 47.759875 L 176.05024 46.029749 L 175.88022 43.009778 L 175.78979 40.329838 L 170.42991 40.159823 L 167.66005 40.329838 L 166.6198 41.5401 L 166.26995 43.270227 L 166.6198 44.309957 L 165.24004 44.479972 L 163.16989 44.130123 C 163.16989 44.130123 161.44019 42.749897 161.53019 42.319897 C 161.62019 41.889897 161.00981 38.090181 161.00981 38.090181 L 159.63005 32.990234 L 158.85025 32.55977 L 157.89992 33.510099 C 157.89992 33.510099 157.90001 34.199845 157.81001 34.719845 C 157.72001 35.239845 157.29014 36.360055 157.29014 36.360055 L 155.47992 34.110063 L 154.10015 36.010205 L 154.36009 39.030176 L 153.23974 41.620199 L 151.94008 44.820003 L 150.46989 47.58986 L 147.53001 50.530249 L 146.41018 52.259859 L 146.31975 53.119755 L 144.51004 54.330017 L 144.59996 55.019897 L 146.16007 55.970227 L 146.42 56.660107 L 144.51986 57.699837 L 144 58.56025 L 146.33009 60.199943 L 145.98024 61.840153 C 145.98024 61.840153 144.60011 62.619883 144.25011 62.879883 C 143.90011 63.139883 143.81978 63.139815 143.29978 63.139815 C 142.77978 63.139815 140.87977 62.360018 140.87977 62.360018 L 139.07006 61.149756 C 139.07006 61.149756 140.27981 59.420115 140.27981 59.080115 C 140.27981 58.730115 138.4701 57.269889 138.4701 57.269889 L 136.90999 56.669926 L 138.5502 54.939799 L 139.50001 54.509851 L 140.01988 52.870158 L 139.07006 50.8 L 136.73997 50.8 C 136.38997 50.8 132.58984 50.889917 132.58984 50.889917 L 130.95015 50.629985 L 130.25975 47.170247 L 129.99982 45.10009 C 129.99982 45.10009 128.43974 43.979827 127.83974 43.889827 C 127.23974 43.799827 125.68018 43.289864 125.68018 43.289864 L 126.88993 41.129789 C 126.88993 41.129789 128.62006 38.539819 128.62006 38.109819 C 128.62006 37.679819 128.09974 35.949946 127.83974 35.169946 C 127.57974 34.389946 126.11013 33.609835 126.11013 33.609835 C 126.11013 33.609835 124.29991 34.820045 124.29991 35.250045 C 124.29991 35.680045 123.00024 37.759969 123.00024 37.759969 L 123.00024 38.879797 L 120.84017 38.529948 L 119.53999 38.440031 L 119.28006 39.299927 L 118.42016 40.680204 L 116.4301 40.419755 C 116.4301 40.419755 115.73979 40.940002 115.64979 41.460002 C 115.55979 41.980002 115.29994 42.580113 115.29994 43.020113 C 115.29994 43.450113 116.77013 43.79991 116.77013 43.79991 C 116.77013 43.79991 118.14981 44.580256 118.23981 44.920256 C 118.32981 45.270256 118.40983 46.729964 118.40983 46.729964 C 118.40983 46.729964 117.81 47.329845 117.29 47.419845 C 116.77 47.509845 115.12998 48.110107 114.69998 48.630107 C 114.26998 49.150107 113.22978 49.929769 113.22978 49.929769 C 113.22978 49.929769 113.05986 51.569761 113.13986 52.179761 C 113.22986 52.779761 112.78998 53.390038 112.44998 53.560038 C 112.09998 53.730038 110.97984 53.729971 110.54984 53.819971 C 110.11984 53.909971 109.43001 54.079903 109.43001 54.079903 L 111.50017 56.409993 L 115.55987 60.470211 L 123.94024 76.289917 L 141.92002 78.709924 L 161.19016 78.109961 C 161.19016 78.109961 182.44979 86.14978 182.87979 86.14978 C 183.30979 86.14978 203.79014 88.920154 203.79014 88.920154 L 225.21984 94.379769 C 226.33984 94.289769 244.5799 90.839933 244.5799 90.839933 L 244.31997 90.150053 L 242.58984 90.499902 L 242.41983 89.030225 L 244.92975 86.519784 C 244.92975 86.519784 244.93019 84.449844 245.02019 83.839844 C 245.11019 83.239844 248.56002 79.610128 248.56002 79.610128 C 248.56002 79.610128 252.7901 77.450001 255.3901 77.880001 C 257.9801 78.310001 265.16004 76.409806 265.16004 76.409806 C 265.16004 76.409806 266.62998 74.080165 267.83998 74.340165 C 269.04998 74.600165 270.35021 73.04015 272.07021 74.17015 C 273.80021 75.29015 274.13986 72.010075 274.13986 72.010075 L 272.84019 71.410111 L 271.54001 70.550216 L 273.18022 68.73999 L 281.56007 69.339954 L 282.5998 70.550216 L 281.64999 72.019893 L 282.5998 73.06014 L 284.32993 73.150057 L 287.00987 69.169938 L 288.8201 68.390141 L 293.57019 72.800208 L 292.44985 74.869849 L 293.04981 75.820178 L 294.94996 76.859908 L 298.22986 76.340043 L 299.44012 74.869849 L 299.87007 73.830119 L 293.12991 67.349894 L 288.9002 65.789783 C 288.9002 65.789783 288.47011 64.490157 288.99011 63.890157 C 289.51011 63.290157 290.62981 59.48009 290.62981 59.48009 L 289.16013 58.439844 L 287.51992 59.390173 L 284.9299 59.039807 L 285.01981 57.480212 L 286.23007 55.060205 L 291.2401 52.040234 L 292.0199 50.230009 L 290.72024 48.499882 C 290.72024 48.499882 288.38983 47.809986 287.60983 47.639986 C 286.82983 47.469986 282.93984 46.430241 282.93984 46.430241 L 281.90011 45.649927 L 282.50007 43.319836 C 282.50007 43.319836 283.54018 41.330195 284.06018 41.250195 C 284.58018 41.160195 288.63975 38.920105 288.63975 38.920105 L 291.58014 38.139791 L 293.21983 36.930046 L 292.44003 34.680054 L 290.96984 32.779911 L 284.40021 32.869828 L 281.88977 33.469792 L 279.46976 33.469792 L 276.88026 32.519979 C 276.88026 32.519979 275.50013 31.480249 275.15013 31.480249 C 274.80013 31.480249 270.40003 31.389815 270.40003 31.389815 L 268.75982 31.389815 L 265.39 30.610018 L 263.31984 29.399756 L 260.89984 28.799792 L 257.01015 28.369845 L 254.76016 28.459762 L 252.69 28.289746 L 250.95988 26.480037 L 249.75013 25.009843 L 247.9399 23.450248 L 248.28975 20.249927 L 247.9399 19.040181 L 246.03976 17.740002 L 244.40007 17.140039 L 243.71019 16.450159 L 243.18981 15.069881 L 243.8802 13.260173 L 245.25997 12.739791 L 246.90017 12.309843 L 246.81026 10.840165 L 246.11986 10.410217 L 243.00997 9.1999552 z M 208.90715 56.243079 L 210.20009 56.243079 L 211.75762 60.449023 L 210.66724 60.449023 L 210.40266 59.682662 L 208.70716 59.682662 L 208.43947 60.449023 L 207.3491 60.449023 L 208.90715 56.243079 z M 213.45312 56.329895 L 214.16832 56.329895 L 214.16832 60.449023 L 213.29706 60.449023 L 213.29706 58.066223 C 213.29706 57.966223 213.29926 57.835526 213.30326 57.673999 C 213.31093 57.512479 213.31645 57.370225 213.32031 57.247152 C 213.30111 57.270218 213.25911 57.312219 213.19371 57.373759 C 213.13217 57.431426 213.07443 57.483648 213.02059 57.529822 L 212.54723 57.910677 L 212.12607 57.385645 L 213.45312 56.329895 z M 218.94426 56.329895 L 219.65998 56.329895 L 219.65946 60.449023 L 218.7882 60.449023 L 218.7882 58.066223 C 218.7882 57.966223 218.7904 57.835526 218.7944 57.673999 C 218.80206 57.512479 218.8081 57.370225 218.81197 57.247152 C 218.79277 57.270218 218.75026 57.312219 218.68484 57.373759 C 218.62331 57.431426 218.56557 57.483648 218.51173 57.529822 L 218.03889 57.910677 L 217.61772 57.385645 L 218.94426 56.329895 z M 209.55465 57.229065 L 208.97743 58.902348 L 210.12929 58.902348 L 209.55465 57.229065 z M 215.67417 59.358651 L 216.68807 59.358651 L 216.68807 60.449023 L 215.67417 60.449023 L 215.67417 59.358651 z " /><path
       id="path2"
       style="fill:#000000;stroke-width:0.264583"
       inkscape:label="path2"
       d="M 98.096855 55.515991 C 97.357793 55.498803 96.807772 55.636358 95.982772 55.773857 C 94.882769 55.957192 94.577203 56.079367 94.088314 56.507145 C 93.599425 56.934921 93.72169 57.179147 93.355025 58.034701 C 92.988357 58.890258 92.499264 59.073914 92.499264 59.073914 C 92.499264 59.073914 92.743916 59.745707 91.216138 59.745707 C 89.68836 59.745707 89.993518 59.623781 89.260185 59.134892 C 88.526853 58.646003 87.610467 58.706745 86.754911 58.828967 C 85.899357 58.951188 86.021653 59.195853 85.532764 59.440299 C 85.043875 59.684742 84.676783 60.112726 84.06567 60.296061 C 83.454559 60.479394 83.026989 60.234698 82.782544 60.173588 C 82.5381 60.112477 82.171729 59.256848 82.171729 59.256848 C 82.171729 59.256848 81.865967 56.873545 81.315967 56.629102 C 80.765967 56.384656 80.032487 56.567961 79.482487 57.117961 C 78.932486 57.667961 79.482355 57.79036 79.543465 58.462581 C 79.604576 59.134803 79.482487 59.623854 79.482487 60.051632 C 79.482487 60.479411 79.054606 60.906877 79.054606 60.906877 C 79.054606 60.906877 79.11594 61.579085 77.527051 61.151306 C 75.938162 60.723528 76.365735 60.846048 74.532402 60.540491 C 72.699067 60.234935 73.493647 60.662357 72.332536 62.129024 C 71.171426 63.595692 72.882727 63.840236 73.432727 64.695793 C 73.982727 65.551347 74.593853 65.673494 75.327185 65.91794 C 76.06052 66.162384 77.649362 66.651465 78.199361 67.018132 C 78.749361 67.3848 78.26059 68.117894 78.382812 68.790116 C 78.505034 69.462337 77.771524 69.768291 77.038192 70.746069 C 76.304857 71.723848 76.487954 71.784558 76.671289 73.067891 C 76.854622 74.351223 77.343689 73.801283 78.01591 74.229061 C 78.688135 74.65684 78.993671 74.718142 80.399227 75.329252 C 81.804781 75.940363 82.232647 76.307043 83.210425 77.22371 C 84.188203 78.140375 83.821506 78.812435 83.699284 79.912435 C 83.577062 81.012435 82.782721 80.768299 81.988277 81.196077 C 81.193831 81.623856 81.071524 82.173885 81.315967 82.846106 C 81.560413 83.518328 82.232826 84.49566 82.416158 85.901217 C 82.599493 87.306771 81.987923 87.368031 81.437923 87.734696 C 80.887923 88.101363 78.749258 88.040104 77.77148 88.040104 C 76.793702 88.040104 74.043824 89.018296 73.677157 89.751628 C 73.310492 90.484961 73.310254 92.379374 73.310254 92.379374 C 73.310254 92.379374 72.760433 92.378989 72.515987 92.317879 C 72.271544 92.256768 70.37713 91.584976 69.888241 91.646086 C 69.399352 91.7072 67.077043 91.462634 67.077043 91.462634 C 67.077043 91.462634 64.693875 93.723802 64.388318 94.762691 C 64.082764 95.80158 66.160538 94.945878 66.527205 95.068099 C 66.893873 95.190321 68.543488 96.718218 68.604598 97.390438 C 68.665709 98.062658 67.56602 99.651514 67.749353 100.01818 C 67.932688 100.38485 68.971501 103.62365 68.971501 103.62365 C 68.968725 103.63122 68.936947 103.75908 69.765767 104.17349 C 70.621324 104.60127 71.049303 104.29572 72.760417 104.17349 C 74.471527 104.05127 74.471733 104.23458 75.755066 104.66235 C 77.038402 105.09013 76.365835 105.21251 77.09917 106.2514 C 77.832502 107.29029 77.466056 107.10694 77.710502 108.63471 C 77.954946 110.16249 77.771688 110.0405 78.627242 111.1405 C 79.482799 112.2405 79.177049 111.99596 79.665938 112.85151 C 80.154828 113.70707 80.032444 113.64573 80.215776 114.37906 C 80.399111 115.11239 79.910531 115.05122 79.360531 115.35678 C 78.810531 115.66233 78.32151 115.72392 77.282621 116.09059 C 76.243732 116.45726 76.060251 116.57933 75.449141 116.64043 C 74.838027 116.70154 74.165808 116.88496 73.310254 117.31274 C 72.454697 117.74052 71.904698 117.86239 71.171366 118.65684 C 70.438031 119.45128 70.74378 119.20714 70.13267 120.18491 C 69.521559 121.1627 70.193634 120.79583 70.438078 121.22361 C 70.682524 121.65139 71.110447 121.59048 72.271558 122.07937 C 73.432668 122.56826 73.004697 122.62943 73.310254 123.24054 C 73.615808 123.85165 73.554697 124.15697 73.310254 124.76809 C 73.065808 125.3792 72.332375 125.50147 70.743486 126.17369 C 69.154597 126.84591 69.888241 126.90681 69.888241 127.70125 C 69.888241 128.4957 70.193604 128.43487 70.926937 129.22932 C 71.660272 130.02376 71.538328 129.90118 72.699438 130.81785 C 73.860552 131.73451 73.79944 131.79565 74.838326 132.71231 C 75.877215 133.62898 75.510606 133.62903 75.999495 133.87348 C 76.488381 134.11793 76.732339 133.69043 77.649007 133.5071 C 78.565671 133.32376 78.932474 133.62902 79.726917 134.11791 C 80.521363 134.6068 79.910471 135.21806 80.338249 135.95139 C 80.766025 136.68472 81.315774 136.13472 82.354663 135.95139 C 83.393552 135.76805 83.699312 135.82904 85.349312 136.01237 C 86.999312 136.19571 86.082613 136.31802 87.977059 136.68468 C 89.871503 137.05135 89.138052 136.68469 89.932495 136.44025 C 90.726941 136.19581 90.604894 135.89059 91.277116 135.09615 C 91.949337 134.3017 92.804862 135.03476 93.904862 135.46253 C 95.004862 135.89031 95.06587 136.19566 95.615869 136.74566 C 96.165869 137.29566 96.043454 138.76253 96.654565 139.74031 C 97.265675 140.71809 97.449332 141.2071 97.693778 142.06265 C 97.938221 142.91821 97.938208 143.22365 97.938208 143.77365 C 97.938208 144.32365 96.716077 145.11813 96.471631 145.42368 C 96.227188 145.72924 94.088254 146.09609 92.927144 146.52387 C 91.766033 146.95165 90.726808 147.62391 89.993473 147.92947 C 89.26014 148.23502 88.893945 149.45725 88.588391 150.06836 C 88.282834 150.67947 88.34383 151.41269 88.40494 152.0238 C 88.466051 152.63491 89.44362 155.01805 89.688066 155.20138 C 89.932509 155.38471 92.010404 154.89597 92.010404 154.89597 C 92.010404 154.89597 101.78819 150.98459 102.46041 150.74015 C 103.13264 150.4957 104.72125 150.12923 104.96569 149.94589 C 105.21014 149.76256 107.96032 149.27384 108.20476 149.15162 C 108.4492 149.0294 109.79382 147.62355 109.79382 147.62355 C 109.79382 147.62355 110.46613 145.60715 110.46613 145.3627 C 110.46613 145.11826 111.87172 144.01808 111.87172 144.01808 L 113.21583 142.97939 L 113.82716 141.08493 L 114.31602 139.4349 L 115.11029 138.64012 C 115.11029 138.64012 118.59352 137.6013 118.96018 137.41797 C 119.32685 137.23463 120.48825 135.76794 120.48825 135.76794 C 120.48825 135.76794 121.4046 133.32379 121.58793 133.01824 C 121.77126 132.71268 123.36043 131.0628 123.36043 131.0628 L 125.8657 129.53473 C 125.8657 129.53473 130.38826 128.55701 130.93826 128.55701 C 131.48826 128.55701 134.7881 128.74034 135.52144 128.80144 C 136.25477 128.86255 140.47153 129.35128 140.47153 129.35128 C 140.47153 129.35128 143.28246 131.42942 143.40468 131.79609 C 143.5269 132.16275 144.07699 133.20169 144.07699 133.20169 L 146.39933 133.07922 L 148.66018 132.22345 C 148.66018 132.22345 154.34393 136.80701 154.64948 137.11256 C 154.95504 137.41812 158.56033 139.92349 158.80478 140.04572 C 159.04922 140.16794 161.18809 140.90148 161.18809 140.90148 L 162.47174 143.28479 L 164.73258 145.30121 L 166.38261 145.79058 L 167.29935 143.77365 L 169.43824 145.48466 C 169.43824 145.48466 171.27132 144.07908 171.21022 143.83463 C 171.14911 143.59019 166.93245 138.70161 166.93245 138.70161 L 156.42146 131.00131 L 151.53235 116.94583 L 156.91032 107.53452 L 152.20466 90.362443 L 141.75465 80.156864 L 123.29945 78.201428 L 115.04931 62.251497 L 108.7546 55.651383 C 108.7546 55.651383 108.99943 58.156983 109.06053 59.19587 C 109.12164 60.234759 108.99943 59.990491 108.8161 60.540491 C 108.63277 61.090491 108.38814 60.601615 107.47148 60.296061 C 106.55481 59.990504 106.1269 59.745737 105.39357 59.256848 C 104.66024 58.767959 104.41613 58.157204 104.04946 57.668315 C 103.6828 57.179426 102.15504 56.507162 101.66615 56.262716 C 101.17726 56.018273 100.13815 55.773737 98.915926 55.590405 C 98.610371 55.544572 98.343209 55.52172 98.096855 55.515991 z M 109.2755 101.754 L 110.56844 101.754 L 112.12597 105.95942 L 111.03612 105.95942 L 110.77153 105.19306 L 109.07551 105.19306 L 108.80783 105.95942 L 107.71797 105.95942 L 109.2755 101.754 z M 119.33587 101.78242 C 119.60508 101.78242 119.83604 101.83281 120.02833 101.9328 C 120.22447 102.02895 120.37408 102.16148 120.47792 102.3307 C 120.5856 102.49608 120.63966 102.68452 120.63966 102.89604 C 120.63966 103.12296 120.59348 103.33082 120.50117 103.51926 C 120.41272 103.70772 120.28201 103.89381 120.10895 104.0784 C 119.93973 104.26301 119.7337 104.46719 119.49141 104.69025 L 118.9607 105.18634 L 118.9607 105.22665 L 120.7549 105.22665 L 120.7549 105.95942 L 117.87653 105.95942 L 117.87653 105.35378 L 118.90902 104.3094 C 119.11669 104.09403 119.28388 103.9153 119.4108 103.77299 C 119.53771 103.62685 119.6301 103.49614 119.68778 103.38077 C 119.74545 103.26154 119.77408 103.13451 119.77408 102.99991 C 119.77408 102.83453 119.72789 102.71119 119.63559 102.63043 C 119.54714 102.54966 119.42615 102.50951 119.27231 102.50951 C 119.11463 102.50951 118.96083 102.54599 118.81084 102.61906 C 118.66085 102.69213 118.50337 102.79605 118.338 102.93067 L 117.86464 102.37101 C 117.98387 102.26717 118.10905 102.17111 118.23981 102.08266 C 118.37442 101.9942 118.52822 101.92307 118.70128 101.86923 C 118.87819 101.81157 119.08973 101.78242 119.33587 101.78242 z M 113.82199 101.8403 L 114.53719 101.8403 L 114.53668 105.95942 L 113.66593 105.95942 L 113.66593 103.57662 C 113.66593 103.47664 113.66761 103.34593 113.67161 103.1844 C 113.67928 103.02287 113.68532 102.88062 113.68918 102.75755 C 113.66992 102.78062 113.62741 102.82314 113.56206 102.88468 C 113.50053 102.94234 113.44278 102.99406 113.38894 103.04022 L 112.91611 103.42108 L 112.49494 102.89604 L 113.82199 101.8403 z M 109.92352 102.73947 L 109.34578 104.41275 L 110.49816 104.41275 L 109.92352 102.73947 z M 116.04305 104.86905 L 117.05694 104.86905 L 117.05694 105.95942 L 116.04305 105.95942 L 116.04305 104.86905 z " /><path
       id="path3"
       style="fill:#000000;stroke-width:0.264583"
       d="M 161.6692 79.923804 L 143.17472 80.183219 L 153.63197 90.381563 L 158.21257 107.32058 L 153.45885 117.17269 C 153.45885 117.17269 157.52115 130.7414 157.86685 131.08709 C 158.21254 131.43279 160.63223 133.07487 161.5829 133.93911 C 162.53356 134.80335 162.53341 134.63057 163.48408 135.32197 C 164.43474 136.01336 164.78043 136.0996 165.64467 136.53172 C 166.50891 136.96385 167.54639 137.6552 168.23779 138.34659 C 168.92918 139.03799 169.53398 140.50748 169.79325 141.02602 C 170.05252 141.54457 172.99099 144.31005 172.99099 144.31005 L 169.87955 145.60662 C 169.87955 145.60662 171.17603 145.77948 171.95385 145.95233 C 172.73166 146.12518 174.63293 146.72996 175.5836 147.16208 C 176.53427 147.5942 177.57122 148.6314 177.83049 149.23637 C 178.08976 149.84134 177.48488 151.39659 177.05276 151.65586 C 176.62064 151.91514 177.74419 152.77982 177.74419 152.77982 C 177.74419 152.77982 179.64539 155.11305 179.99108 155.80444 C 180.33678 156.49583 180.59621 157.53302 180.59621 157.53302 L 181.80596 168.85429 L 197.53523 168.68169 L 209.72105 177.23776 C 209.72105 177.23776 230.29023 182.25013 230.72235 182.42297 C 231.15447 182.59582 243.25389 182.94181 243.25389 182.94181 L 264.08207 177.32406 L 270.73645 165.91597 C 270.73645 165.91597 278.16902 160.64402 277.47764 159.86621 C 276.78623 159.08839 276.44056 158.56999 275.66276 157.96503 C 274.88494 157.36006 274.19365 157.18729 272.72444 156.84159 C 271.25524 156.49589 270.65034 156.4957 269.4404 155.89074 C 268.23046 155.28577 268.92166 155.02653 268.48955 154.07587 C 268.05743 153.1252 267.97117 153.29812 266.93409 152.95242 C 265.897 152.60673 266.2425 152.95266 265.63753 152.77982 C 265.03256 152.60697 264.42779 151.48326 264.42779 151.48326 C 264.42779 151.48326 264.51418 150.0141 263.73636 150.0141 C 262.95852 150.0141 262.87233 151.13754 262.87233 151.13754 C 262.87233 151.13754 261.57546 151.05135 260.71122 150.96495 C 259.84698 150.87853 259.32855 150.44591 258.11861 149.14955 C 256.90868 147.85319 257.51381 148.28569 256.56315 146.73006 C 255.61248 145.17442 256.04442 145.69286 255.6123 144.65577 C 255.18018 143.61868 254.74823 143.70503 254.05684 143.27291 C 253.36544 142.84079 252.50108 142.58145 251.63684 141.89005 C 250.7726 141.19866 250.94551 141.02611 250.51339 140.24829 C 250.08127 139.47048 249.90837 138.51951 249.47625 137.22315 C 249.04413 135.92679 249.47625 134.97645 249.47625 133.76651 C 249.47625 132.55657 249.21693 132.6427 248.78481 130.74137 C 248.35269 128.84003 248.09363 128.66728 247.92078 127.45734 C 247.74793 126.2474 247.22935 123.48193 247.22935 122.01271 C 247.22935 120.5435 247.74767 119.59252 247.74767 118.64185 C 247.74767 117.69119 247.05665 114.75318 247.14305 114.40749 C 247.22948 114.06179 248.52592 111.90118 248.52592 111.90118 C 248.52592 111.90118 249.47627 113.1111 249.82196 113.71606 C 250.16766 114.32103 251.11852 114.7532 251.11852 114.7532 C 251.11852 114.7532 251.80995 113.88888 251.80995 113.37034 C 251.80995 112.85179 251.89625 111.72806 251.89625 111.72806 L 251.29112 109.56747 L 251.89625 108.70344 L 253.27911 111.72806 C 253.27911 111.72806 254.31626 110.51841 254.31626 109.74059 C 254.31626 108.96278 255.35303 107.14742 255.6123 106.45603 C 255.87158 105.76463 255.43971 104.81427 255.43971 104.81427 L 252.50138 104.38226 L 252.50138 103.172 C 252.50138 102.8263 252.3281 101.70282 251.72314 101.35712 C 251.11817 101.01143 250.94541 101.70284 250.94541 101.70284 L 249.47625 103.34511 L 247.92078 99.974259 C 247.92078 99.974259 248.61224 99.196514 248.95793 98.850814 C 249.30365 98.505114 249.64923 97.295444 249.38995 96.517623 C 249.13068 95.739803 248.5254 95.998792 248.5254 95.998792 L 245.67389 94.875346 L 245.32818 94.183915 L 245.32818 92.369039 L 225.70974 96.344507 L 204.27642 90.467863 L 183.10252 87.78844 L 161.6692 79.923804 z M 204.95028 133.63164 L 206.24323 133.63164 L 207.80075 137.83706 L 206.7109 137.83706 L 206.44631 137.07122 L 204.75029 137.07122 L 204.48261 137.83706 L 203.39275 137.83706 L 204.95028 133.63164 z M 214.88973 133.66058 C 215.31277 133.66058 215.64714 133.74693 215.89328 133.91999 C 216.14327 134.08922 216.26845 134.32988 216.26845 134.64139 C 216.26845 134.92599 216.18159 135.15276 216.00852 135.32197 C 215.8393 135.4912 215.63012 135.60667 215.38014 135.6682 L 215.38014 135.68526 C 215.71088 135.72372 215.96074 135.82398 216.12996 135.9855 C 216.30303 136.14702 216.38938 136.36408 216.38938 136.63714 C 216.38938 136.87558 216.3298 137.0908 216.21058 137.28309 C 216.0952 137.47155 215.91463 137.62167 215.66849 137.73319 C 215.4262 137.84088 215.11257 137.89494 214.72798 137.89494 C 214.28185 137.89494 213.88555 137.81963 213.53942 137.66963 L 213.53942 136.93169 C 213.71633 137.02015 213.90109 137.08708 214.09339 137.13323 C 214.28953 137.17936 214.47062 137.20248 214.63599 137.20248 C 214.94751 137.20248 215.16456 137.14894 215.28763 137.04125 C 215.41455 136.93357 215.4778 136.78161 215.4778 136.58546 C 215.4778 136.47009 215.44917 136.37351 215.3915 136.29659 C 215.33384 136.21583 215.23175 136.15625 215.08558 136.11779 C 214.94329 136.07546 214.74329 136.05474 214.48562 136.05474 L 214.17452 136.05474 L 214.17452 135.38553 L 214.49182 135.38553 C 214.74564 135.38553 214.93776 135.36242 215.06853 135.31629 C 215.20313 135.26629 215.29368 135.20068 215.33983 135.11992 C 215.38983 135.0353 215.41476 134.93924 215.41476 134.83156 C 215.41476 134.68542 215.36857 134.57178 215.27627 134.49102 C 215.18781 134.40641 215.03768 134.36441 214.82616 134.36441 C 214.63002 134.36441 214.45864 134.39905 214.3125 134.46828 C 214.17019 134.53368 214.04921 134.59877 213.94921 134.66413 L 213.54562 134.06417 C 213.70715 133.94879 213.8956 133.85273 214.11096 133.77581 C 214.33018 133.69889 214.58975 133.66058 214.88973 133.66058 z M 209.49677 133.71845 L 210.21198 133.71845 L 210.21146 137.83706 L 209.34071 137.83706 L 209.34071 135.45478 C 209.34071 135.35479 209.34239 135.22408 209.34639 135.06256 C 209.35406 134.90103 209.3601 134.75827 209.36396 134.63519 C 209.34476 134.65826 209.30225 134.70077 209.23684 134.76232 C 209.17531 134.81998 209.11756 134.87169 209.06372 134.91786 L 208.59089 135.29872 L 208.16972 134.77369 L 209.49677 133.71845 z M 205.5983 134.61762 L 205.02056 136.29091 L 206.17295 136.29091 L 205.5983 134.61762 z M 211.71783 136.74721 L 212.73172 136.74721 L 212.73172 137.83706 L 211.71783 137.83706 L 211.71783 136.74721 z " /><path
       id="path4"
       style="fill:#000000;stroke-width:0.264583"
       d="M 277.81767 161.89348 L 271.0956 167.7603 L 264.98434 179.00458 L 244.2068 184.74945 L 232.35119 184.26059 L 210.22903 178.76015 L 198.00652 170.32707 L 182.60642 170.44903 C 182.60642 170.44903 183.70659 173.38263 184.19548 174.60485 C 184.68437 175.82708 186.1511 178.02705 187.2511 179.12705 C 188.3511 180.22705 189.20651 181.44906 189.6954 182.54906 C 190.18429 183.64906 191.16226 187.56058 190.79559 188.53836 C 190.42893 189.51613 189.94011 191.59391 189.57344 192.81614 C 189.20677 194.03836 189.20657 193.91598 188.71768 195.50486 C 188.2288 197.09375 188.22882 197.33805 188.22882 197.94916 C 188.22882 198.56027 189.08458 198.43802 189.08458 198.43802 C 189.08458 198.43802 189.57313 198.07169 190.42869 197.09391 C 191.28424 196.11614 192.01774 196.84948 192.01774 196.84948 L 192.5066 198.43802 L 193.72874 199.29378 L 196.05108 199.04935 C 196.05108 199.04935 196.17323 199.04906 197.27323 199.41573 C 198.37323 199.78239 197.3957 200.39367 197.3957 201.00479 C 197.3957 201.6159 196.66248 201.49359 195.6847 202.22693 C 194.70692 202.96026 195.68468 203.32682 195.92913 204.18237 C 196.17357 205.03793 196.90652 205.5272 198.00652 206.38275 C 199.10652 207.23831 199.71775 206.62718 200.32886 206.62718 C 200.93997 206.62718 203.87351 207.11573 205.21796 207.97128 C 206.5624 208.82684 205.82873 208.705 206.8065 210.17167 C 207.78428 211.63834 207.41779 211.51567 208.15112 213.22678 C 208.88445 214.93789 209.00682 214.57133 209.9846 215.79355 C 210.96238 217.01577 210.47316 216.64923 211.08427 218.11589 C 211.69538 219.58256 211.329 219.09355 210.71789 219.82689 C 210.10677 220.56022 209.86244 220.07157 209.00688 220.19379 C 208.15133 220.31601 208.3956 220.43793 207.41783 221.04904 C 206.44005 221.66015 207.66223 221.905 208.15112 222.76056 C 208.64001 223.61611 209.12881 224.10487 209.6177 224.96043 C 210.10658 225.81598 210.83984 224.22714 210.83984 224.22714 L 210.71789 223.12695 L 211.81756 221.41594 C 211.81756 221.41594 217.44015 223.12692 218.54015 223.61581 C 219.64015 224.1047 223.30692 226.42693 225.14026 227.64915 C 226.97359 228.87137 226.72874 229.3606 227.46208 230.58282 C 228.19541 231.80505 228.44005 233.63812 228.80671 234.98256 C 229.17338 236.32701 231.74008 238.89362 232.35119 239.99362 C 232.9623 241.09362 234.18458 240.84937 235.65125 241.09381 C 237.11792 241.33826 237.36246 241.58239 238.21802 241.94906 C 239.07357 242.31572 238.95131 243.66027 238.95131 244.51582 C 238.95131 245.37138 239.80652 245.37159 240.29541 245.37159 C 240.7843 245.37159 243.71794 246.10487 243.71794 246.10487 C 243.71794 246.10487 244.57319 248.67135 244.57319 249.28246 C 244.57319 249.89357 247.87321 253.438 248.3621 253.80466 C 248.85099 254.17133 252.88431 255.88257 252.88431 255.88257 L 255.20664 259.54902 L 265.8401 254.66042 L 290.52904 253.43828 L 299.57345 244.6383 L 311.67348 237.3049 L 320.47346 227.40472 L 312.89563 218.84917 L 309.96248 218.23836 L 303.11793 203.08269 L 301.28445 201.12726 L 300.42869 195.87125 L 295.41763 180.59363 L 290.04018 168.37163 L 288.08422 167.88278 L 287.35094 168.98245 L 284.78468 168.37163 L 277.81767 161.89348 z M 261.34219 212.53535 L 262.63513 212.53535 L 264.19266 216.74129 L 263.1028 216.74129 L 262.8377 215.97493 L 261.1422 215.97493 L 260.87452 216.74129 L 259.78466 216.74129 L 261.34219 212.53535 z M 265.91142 212.56429 C 266.18063 212.56429 266.41107 212.61467 266.60337 212.71466 C 266.79951 212.81081 266.94963 212.94335 267.05347 213.11257 C 267.16115 213.27795 267.21521 213.46639 267.21521 213.67791 C 267.21521 213.90482 267.16902 214.11268 267.07672 214.30113 C 266.98826 214.48958 266.85756 214.67566 266.6845 214.86027 C 266.51528 215.04487 266.30926 215.24905 266.06696 215.47212 L 265.53625 215.96821 L 265.53625 216.00852 L 267.33045 216.00852 L 267.33045 216.74129 L 264.45156 216.74129 L 264.45156 216.13513 L 265.48457 215.09126 C 265.69225 214.87589 265.85944 214.69716 265.98635 214.55486 C 266.11326 214.40872 266.20565 214.27803 266.26333 214.16264 C 266.321 214.04343 266.34963 213.91639 266.34963 213.78178 C 266.34963 213.6164 266.30344 213.49306 266.21114 213.4123 C 266.12269 213.33154 266.0017 213.29137 265.84786 213.29137 C 265.69018 213.29137 265.53637 213.32786 265.38639 213.40093 C 265.23639 213.474 265.0784 213.57793 264.91303 213.71254 L 264.44019 213.15288 C 264.55941 213.04904 264.6846 212.95298 264.81536 212.86453 C 264.94997 212.77607 265.10376 212.70495 265.27683 212.6511 C 265.45374 212.59344 265.66528 212.56429 265.91142 212.56429 z M 271.37982 212.62216 L 272.09502 212.62216 L 272.09502 216.74129 L 271.22375 216.74129 L 271.22375 214.35849 C 271.22375 214.2585 271.22544 214.12779 271.22944 213.96627 C 271.23711 213.80474 271.24314 213.66249 271.24701 213.53942 C 271.22781 213.56249 271.1853 213.605 271.11989 213.66654 C 271.05835 213.72421 271.00061 213.77592 270.94677 213.82209 L 270.47393 214.20295 L 270.05277 213.67791 L 271.37982 212.62216 z M 261.99021 213.52133 L 261.41247 215.19462 L 262.56485 215.19462 L 261.99021 213.52133 z M 268.10922 215.65092 L 269.12362 215.65092 L 269.12362 216.74129 L 268.10922 216.74129 L 268.10922 215.65092 z " /><path
       id="path6"
       style="fill:#000000;stroke-width:0.264583"
       d="M 320.88222 229.01961 L 311.89414 239.56316 L 300.57235 246.47694 L 291.49797 255.11931 L 266.78062 256.41587 C 266.78062 256.41587 256.6688 261.08292 256.15026 261.34219 L 257.2737 263.15706 L 258.65656 266.4411 L 259.69371 266.09539 C 259.69371 266.09539 260.73066 266.26825 261.9406 266.4411 C 263.15054 266.61395 262.63203 269.37942 262.63203 269.37942 C 262.63203 269.37942 267.64468 269.37969 268.33608 269.55254 C 269.02747 269.72539 270.58348 271.79943 270.58348 271.79943 C 270.58348 271.79943 273.17611 275.25637 273.52181 276.12061 C 273.8675 276.98485 277.15156 277.33036 277.15156 277.33036 L 278.88014 275.42918 L 282.8556 274.91087 C 283.54699 274.56516 285.27509 274.91087 285.27509 274.91087 C 285.27509 274.91087 289.16449 277.50326 290.80654 278.02179 C 292.44864 278.54035 292.53512 277.33036 292.53512 277.33036 L 294.34999 276.12061 C 294.34999 276.12061 297.02912 277.07125 298.67118 277.93549 C 300.31325 278.79971 299.70837 278.36751 300.39975 278.71322 C 301.09116 279.0589 301.26401 280.18244 301.09118 281.21953 C 300.91833 282.25662 301.09095 282.17017 301.26378 283.0344 C 301.43663 283.89864 302.04144 283.89865 303.51067 285.195 C 304.97988 286.49138 305.23941 286.40513 305.84438 286.83727 C 306.44935 287.26939 306.70843 287.78787 307.05413 288.30643 C 307.39983 288.82496 308.26403 292.71383 308.52329 293.49165 C 308.78256 294.26947 310.42498 297.89965 310.42498 297.89965 L 310.94329 297.64023 C 310.94329 297.64023 310.85709 296.60317 310.77069 295.82535 C 310.68428 295.04754 312.15304 295.13392 312.15304 295.13392 C 312.15304 295.13392 313.36305 296.60312 313.5359 296.9488 C 313.70876 297.2945 314.91867 297.0352 315.35078 296.60308 C 315.7829 296.17094 316.21532 294.18308 316.21532 294.18308 C 316.21532 294.18308 318.89455 295.73871 320.10449 296.68938 C 321.31443 297.64006 321.48701 297.72668 322.09197 297.98595 C 322.69694 298.24524 323.47509 299.28231 323.30223 300.14654 C 323.12938 301.01078 321.57349 301.87527 320.96852 302.13453 C 320.36355 302.3938 318.72163 303.86259 318.72163 303.86259 C 318.72163 303.86259 318.1164 306.10989 318.2028 306.54201 C 318.28921 306.97415 319.24 305.9371 320.27709 305.41857 C 321.31417 304.90001 322.17829 304.03544 322.8697 303.86259 C 323.56108 303.68974 324.16628 304.64073 324.51198 305.07285 C 324.85769 305.50497 326.0677 304.81343 326.24055 304.46772 C 326.41341 304.12204 328.22803 302.99856 328.22803 302.99856 L 331.16635 303.77629 C 331.16635 303.77629 331.25275 302.99866 331.16635 302.22083 C 331.07991 301.44301 332.1172 300.83797 332.1172 300.83797 L 335.22863 303.34427 L 336.95721 306.11 L 339.3767 304.29512 L 354.93337 301.6157 C 354.93337 301.6157 371.18103 305.50462 372.21811 305.67747 C 373.25523 305.85032 385.61367 306.97403 385.61367 306.97403 L 394.51545 299.97394 L 399.70118 290.29443 L 409.03498 289.60299 C 409.03498 289.60299 420.9614 293.75096 421.3071 293.83736 C 421.65281 293.92377 437.46839 302.73914 437.46839 302.73914 C 437.46839 302.73914 448.87635 312.33251 449.30849 312.59177 C 449.74061 312.85104 463.30919 319.24615 463.30919 319.24615 C 463.30919 319.24615 463.04987 316.99944 462.96347 315.78951 C 462.87703 314.57957 462.27198 313.88801 461.2349 312.67807 C 460.19781 311.46813 459.16085 310.43118 458.988 310.08547 C 458.81515 309.73977 455.5311 307.75208 455.35825 306.80143 C 455.1854 305.85075 455.44478 304.2083 454.58052 303.86259 C 453.71628 303.51691 450.17281 302.39337 448.18505 301.35628 C 446.19733 300.31919 446.80188 299.88741 446.28335 298.24536 C 445.76478 296.6033 446.11086 296.51662 445.67874 295.91165 C 445.24662 295.30668 443.69077 294.26988 441.53016 293.92418 C 439.36957 293.5785 437.8141 295.39334 437.8141 295.39334 C 437.8141 295.39334 437.03632 294.26995 435.99923 293.14645 C 434.96215 292.02293 433.40614 290.98534 431.59123 290.98534 C 429.77632 290.98534 428.73963 290.81285 427.35686 290.38073 C 425.97407 289.94861 425.10953 285.8002 423.98601 285.0224 C 422.86248 284.24458 418.10921 283.38035 417.84995 282.8618 C 417.59068 282.34324 417.33147 281.65154 416.7265 281.30583 C 416.12153 280.96016 414.82525 280.52834 413.09675 280.00978 C 411.36828 279.49122 410.50423 279.31835 409.3807 278.97264 C 408.2572 278.62694 405.92367 277.07136 403.33094 277.15776 C 400.73824 277.24418 400.3923 276.72558 399.52807 275.7749 C 398.66381 274.82427 397.88604 275.08372 397.36748 274.91087 C 396.84895 274.73802 396.50318 274.30595 395.98462 273.44171 C 395.46609 272.57745 394.86108 272.83642 393.13259 272.23145 C 391.40412 271.62648 391.49062 272.14499 390.19427 271.88573 C 388.89789 271.62646 388.63859 271.36736 386.99653 270.33027 C 385.35448 269.29319 385.09538 269.5525 382.93477 268.51539 C 380.77418 267.4783 381.11962 268.08311 378.78618 267.91026 C 376.4527 267.73743 376.79829 267.47835 376.36617 267.04623 C 375.93405 266.61411 375.15652 265.83593 374.3787 265.49025 C 373.60088 265.14455 371.52666 264.19384 371.18096 262.63823 C 370.83528 261.08258 371.09456 260.8238 371.18096 259.44101 C 371.2674 258.05821 371.61289 257.88518 372.73642 255.98386 C 373.85992 254.08252 374.63805 254.42808 376.10728 253.21814 C 377.57649 252.0082 378.7001 251.66275 380.34216 250.53923 C 381.98421 249.41572 381.29259 248.63788 381.20619 247.68721 C 381.11975 246.73655 380.94683 245.09428 379.82333 243.88434 C 378.6998 242.67438 378.00861 243.10683 376.10728 242.58829 C 374.20594 242.06974 373.60102 242.6745 372.13181 243.45232 C 370.66261 244.23014 368.76116 244.74847 367.89692 244.66207 C 367.03269 244.57564 363.31652 244.31651 362.10658 244.92148 C 360.89664 245.52645 358.13072 246.65016 355.53799 246.56376 C 352.94529 246.47734 351.21677 246.30433 348.01907 245.95863 C 344.82139 245.61293 344.56217 245.35359 342.57444 244.57577 C 340.58668 243.79796 341.96982 243.19326 341.62411 242.58829 C 341.27841 241.98332 340.75956 240.7729 340.75956 240.7729 C 340.75956 240.7729 338.6857 241.03232 336.95721 241.03232 C 335.22874 241.03232 334.45047 240.60051 333.32694 239.73627 C 332.20344 238.87203 332.20347 238.61253 331.51206 237.74828 C 330.82068 236.88404 330.04326 235.76076 329.784 235.06937 C 329.52471 234.37797 328.83315 233.85922 328.48744 233.4271 C 328.14176 232.99498 325.63546 231.69838 324.16626 231.4391 C 322.69705 231.17983 322.35138 230.40247 322.35138 230.40247 L 320.88222 229.01961 z M 338.59845 264.32702 L 339.8914 264.32702 L 341.44893 268.53245 L 340.35907 268.53245 L 340.09397 267.7666 L 338.39847 267.7666 L 338.13078 268.53245 L 337.04041 268.53245 L 338.59845 264.32702 z M 343.16717 264.35596 C 343.43638 264.35596 343.66733 264.40634 343.85963 264.50634 C 344.05576 264.60248 344.20589 264.73503 344.30973 264.90424 C 344.41741 265.06962 344.47096 265.25806 344.47096 265.46958 C 344.47096 265.6965 344.42477 265.90384 344.33247 266.09229 C 344.24402 266.28073 344.11331 266.46733 343.94025 266.65194 C 343.77103 266.83653 343.56552 267.04072 343.32323 267.26379 L 342.79251 267.75988 L 342.79251 267.80019 L 344.58672 267.80019 L 344.58672 268.53245 L 341.70782 268.53245 L 341.70782 267.9268 L 342.74032 266.88293 C 342.94799 266.66757 343.11569 266.48883 343.24261 266.34653 C 343.36953 266.20038 343.4614 266.06917 343.51908 265.95379 C 343.57675 265.83457 343.6059 265.70806 343.6059 265.57345 C 343.6059 265.40808 343.55971 265.28473 343.46741 265.20397 C 343.37896 265.12321 343.25796 265.08304 343.10412 265.08304 C 342.94644 265.08304 342.79264 265.11953 342.64265 265.1926 C 342.49266 265.26567 342.33468 265.3696 342.1693 265.50421 L 341.69646 264.94455 C 341.81568 264.84071 341.94036 264.74465 342.07111 264.6562 C 342.20572 264.56774 342.35952 264.49661 342.53258 264.44277 C 342.70949 264.38511 342.92103 264.35596 343.16717 264.35596 z M 348.65882 264.35596 C 348.92804 264.35596 349.15848 264.40634 349.35077 264.50634 C 349.54691 264.60248 349.69702 264.73503 349.80087 264.90424 C 349.90855 265.06962 349.96262 265.25806 349.96262 265.46958 C 349.96262 265.6965 349.91643 265.90384 349.82413 266.09229 C 349.73567 266.28073 349.60496 266.46733 349.4319 266.65194 C 349.26267 266.83653 349.05665 267.04072 348.81437 267.26379 L 348.28365 267.75988 L 348.28365 267.80019 L 350.07786 267.80019 L 350.07786 268.53245 L 347.19896 268.53245 L 347.19896 267.9268 L 348.23197 266.88293 C 348.43965 266.66757 348.60683 266.48883 348.73375 266.34653 C 348.86067 266.20038 348.95305 266.06917 349.01074 265.95379 C 349.0684 265.83457 349.09704 265.70806 349.09704 265.57345 C 349.09704 265.40808 349.05084 265.28473 348.95854 265.20397 C 348.87009 265.12321 348.7491 265.08304 348.59526 265.08304 C 348.43758 265.08304 348.28378 265.11953 348.13379 265.1926 C 347.9838 265.26567 347.82581 265.3696 347.66043 265.50421 L 347.18759 264.94455 C 347.30682 264.84071 347.432 264.74465 347.56276 264.6562 C 347.69737 264.56774 347.85117 264.49661 348.02424 264.44277 C 348.20114 264.38511 348.41268 264.35596 348.65882 264.35596 z M 339.24648 265.313 L 338.66873 266.98629 L 339.82112 266.98629 L 339.24648 265.313 z M 345.36548 267.44259 L 346.37989 267.44259 L 346.37989 268.53245 L 345.36548 268.53245 L 345.36548 267.44259 z " /><path
       id="path7"
       style="fill:#000000;stroke-width:0.264583"
       d="M 409.93674 291.68607 L 400.03656 292.78575 L 395.14797 302.19706 L 386.46995 309.16356 L 370.82543 307.45255 L 355.79224 303.90806 L 339.65885 306.59679 L 337.82537 308.18584 L 339.5369 309.89685 L 338.80309 311.36394 L 339.04752 312.58609 L 341.61429 315.39677 L 342.47005 316.375 L 342.22562 317.23025 L 339.65885 317.84158 L 340.14771 319.91949 L 340.75905 320.89721 L 339.17 321.99688 C 339.17 321.99688 338.80334 322.60793 339.17 323.21903 C 339.53666 323.83014 341.2476 324.3192 342.10315 324.56365 C 342.95871 324.8081 343.93663 325.29694 343.93663 325.29694 C 343.93663 325.29694 344.67018 326.27465 344.79239 326.76352 C 344.91463 327.25242 344.91435 327.49681 344.91435 327.49681 C 344.91435 327.49681 345.28121 328.84148 345.77011 328.10814 C 346.25898 327.37479 346.86973 326.51909 347.60307 326.51909 C 348.33642 326.51909 348.58127 327.61923 349.07017 328.35257 C 349.55906 329.08589 351.14756 330.55243 351.14756 330.55243 C 351.14756 330.55243 352.00355 331.89678 352.61465 332.26344 C 353.22576 332.63013 354.32531 333.36387 355.66976 333.4861 C 357.01422 333.60832 358.35869 333.119 359.21425 332.26344 C 360.06981 331.40789 360.68083 330.55243 360.68083 330.55243 L 362.51431 330.67491 L 365.56993 331.65262 C 365.56993 331.65262 366.42568 332.26364 366.67013 333.1192 C 366.91458 333.97476 367.52561 336.17479 367.89227 337.15255 C 368.25893 338.13035 368.74776 340.45255 369.11442 341.43032 C 369.48111 342.40808 370.09212 344.36394 370.33657 345.09728 C 370.58099 345.8306 370.82538 347.1746 371.55872 348.39682 C 372.29204 349.61904 373.75878 351.69682 374.36991 352.91903 C 374.98102 354.14125 375.95869 355.36353 376.32535 356.21908 C 376.69203 357.07464 377.42576 358.17492 378.03687 359.88604 C 378.64798 361.59715 380.3587 366.11925 380.3587 366.11925 L 381.58084 368.44159 C 381.58084 368.44159 381.70332 370.64141 381.70332 371.61918 C 381.70332 372.59697 383.41432 376.14138 383.41432 376.14138 C 383.41432 376.14138 383.41452 377.36347 384.75894 378.09682 C 386.1034 378.83014 387.08099 379.07473 387.44767 380.17473 C 387.81433 381.27474 388.91453 382.2528 388.79229 383.59726 C 388.67008 384.94169 388.30349 386.04124 387.57014 386.8968 C 386.83682 387.75235 385.61449 388.73054 384.51451 388.85275 C 383.41451 388.97496 379.99207 390.31929 379.62541 390.80819 C 379.25873 391.29706 378.52573 392.51919 378.52573 392.51919 L 378.52573 393.74134 C 378.52573 393.74134 376.08095 393.49691 375.34763 393.49691 C 374.61428 393.49691 373.88105 393.98577 373.88105 393.98577 L 375.1032 395.20792 C 375.1032 395.20792 376.44779 396.18609 377.18111 396.91944 C 377.91446 397.65276 378.52573 397.65266 378.52573 398.63045 C 378.52573 399.60822 378.15883 401.44165 378.15883 401.44165 L 376.93668 403.15265 C 376.93668 403.15265 377.18083 405.10831 377.30307 405.71942 C 377.42528 406.33053 377.18112 408.1637 376.69225 408.40815 C 376.20335 408.65257 374.2475 409.50828 373.02529 410.24163 C 371.80307 410.97495 371.07016 410.97486 370.21461 411.7082 C 369.35905 412.44155 368.25891 413.29724 368.1367 413.78611 C 368.01448 414.275 367.89227 416.23041 367.89227 416.23041 L 369.72575 417.08617 L 370.581 417.81946 L 369.35885 418.91913 L 368.01423 420.01932 L 368.01423 421.36343 L 368.62556 423.9302 L 369.97018 426.37501 C 369.97018 426.37501 369.97009 427.35245 371.19233 427.71911 C 372.41455 428.08579 374.85877 428.08601 374.85877 428.08601 C 374.85877 428.08601 376.81466 427.35275 377.54801 427.1083 C 378.28133 426.86385 382.4366 426.61944 382.4366 426.61944 L 385.73666 425.6412 L 386.71438 423.56381 L 386.46995 420.38571 C 386.46995 420.38571 386.22575 418.18564 387.08128 417.33008 C 387.93683 416.47455 389.52529 413.9081 390.13639 413.41921 C 390.7475 412.93031 392.94752 411.21914 394.16974 410.36358 C 395.39195 409.50802 397.71417 407.79714 398.44751 407.186 C 399.18083 406.57489 399.30347 406.08611 400.40347 405.23056 C 401.50345 404.375 402.35892 401.5639 402.11447 400.95279 C 401.87005 400.34169 400.40347 395.94172 400.40347 395.94172 C 400.40347 395.94172 399.05861 393.00808 398.93637 392.27476 C 398.81416 391.54141 398.57015 390.19694 399.91461 388.73028 C 401.25903 387.26361 402.35882 386.40829 403.82548 385.06383 C 405.29215 383.71938 407.12546 382.00799 408.34768 381.39687 C 409.56989 380.78576 413.23679 378.70815 413.23679 378.70815 L 415.80356 378.58568 L 417.63652 379.9303 C 417.63652 379.9303 419.34769 379.80789 420.69215 378.58568 C 422.03658 377.36343 422.89202 375.28591 422.89202 374.6748 C 422.89202 374.06369 421.05905 371.86361 421.05905 371.86361 C 421.05905 371.86361 419.71443 370.88598 419.71443 369.41931 C 419.71443 367.95265 420.69247 366.60792 419.83691 365.50792 C 418.98135 364.40791 418.00316 364.40804 417.88095 363.30806 C 417.75874 362.20806 417.88114 360.49715 418.98114 359.88604 C 420.08115 359.27493 420.81466 357.44153 420.08134 356.83042 C 419.34799 356.21931 418.49206 355.60801 417.88095 355.4858 C 417.26984 355.36357 416.53687 354.87501 416.29242 354.38612 C 416.048 353.89722 414.5809 352.79707 414.5809 352.79707 L 411.52579 352.55264 C 411.52579 352.55264 410.18094 351.94161 409.56983 350.84163 C 408.95872 349.74162 407.85864 348.27487 406.75863 348.27487 C 405.65865 348.27487 404.19196 348.15239 402.96972 348.15239 C 401.7475 348.15239 400.28133 349.13019 399.18132 348.15239 C 398.08132 347.17462 397.59232 346.9303 396.85898 345.95253 C 396.12566 344.97473 395.14792 343.75246 395.88126 342.8969 C 396.61458 342.04134 398.0811 340.45243 398.56999 339.10798 C 399.05889 337.76352 399.79236 336.41935 400.15904 335.19711 C 400.5257 333.9749 400.76983 333.36344 401.01428 332.01901 C 401.2587 330.67456 398.81438 329.94167 399.30328 328.9639 C 399.79215 327.98614 401.62534 327.37463 401.992 326.76352 C 402.35866 326.15241 402.48107 324.80797 403.33662 322.73017 C 404.19218 320.65239 404.31458 319.91933 404.68124 318.57487 C 405.04793 317.23042 405.04786 317.23056 405.65896 316.375 C 406.27007 315.51945 407.98101 314.78575 408.59211 313.93019 C 409.20322 313.07463 409.44787 311.85238 409.93674 310.38571 C 410.42564 308.91905 411.40326 308.30833 412.38103 308.06388 C 413.3588 307.81943 413.35867 307.69697 414.82533 307.45255 C 416.292 307.2081 417.63652 308.18584 417.63652 308.18584 C 417.63652 308.18584 418.73665 309.28573 419.95886 310.14128 C 421.18108 310.99684 422.0367 311.85277 423.01449 312.58609 C 423.99226 313.31943 425.21454 313.93041 426.31455 314.54152 C 427.41455 315.15263 428.14791 315.39701 429.6146 315.76367 C 431.08127 316.13036 433.40342 316.8636 435.11453 316.74139 C 436.82562 316.61915 439.88116 315.03038 439.88116 315.03038 C 439.88116 315.03038 441.22577 316.00834 441.71464 316.375 C 442.20354 316.74169 444.03638 317.23046 445.01418 318.08601 C 445.99195 318.94157 446.60346 319.55279 446.7257 320.40835 C 446.84791 321.2639 446.97014 322.24152 447.21456 323.09707 C 447.45901 323.95263 448.19228 325.29694 448.19228 325.29694 L 450.51462 326.51909 C 450.51462 326.51909 451.12548 327.25258 450.63658 328.10814 C 450.14771 328.96369 449.65886 329.94162 449.65886 329.94162 C 449.65886 329.94162 449.90349 331.40788 450.75905 332.01901 C 451.6146 332.63012 452.10328 333.11942 454.18106 333.73053 C 456.25886 334.34166 460.04789 335.31907 460.04789 335.31907 L 462.61466 336.66369 C 462.61466 336.66369 462.37023 330.91939 462.37023 330.18605 C 462.37023 329.45273 461.88108 328.10818 462.49218 327.61928 C 463.10329 327.13041 464.32566 323.58593 464.32566 323.58593 L 463.8368 321.87493 L 450.02576 315.15234 L 437.31439 304.76383 L 421.42544 295.84137 L 409.93674 291.68607 z M 396.88172 361.611 L 398.17415 361.611 L 399.73219 365.81643 L 398.64182 365.81643 L 398.37723 365.05059 L 396.68121 365.05059 L 396.41405 365.81643 L 395.32367 365.81643 L 396.88172 361.611 z M 401.45043 361.63994 C 401.71965 361.63994 401.95061 361.68982 402.1429 361.7898 C 402.33904 361.88596 402.48916 362.01901 402.593 362.18823 C 402.70068 362.3536 402.75423 362.54205 402.75423 362.75357 C 402.75423 362.98048 402.70803 363.18782 402.61573 363.37627 C 402.52728 363.56472 402.39658 363.75133 402.22351 363.93593 C 402.05429 364.12053 401.84879 364.3242 401.60649 364.54726 L 401.07578 365.04335 L 401.07578 365.08418 L 402.86947 365.08418 L 402.86947 365.81643 L 399.99109 365.81643 L 399.99109 365.21078 L 401.02358 364.16692 C 401.23126 363.95155 401.39844 363.7723 401.52536 363.63 C 401.65228 363.48385 401.74465 363.35315 401.80235 363.23778 C 401.86001 363.11855 401.88916 362.99152 401.88916 362.85692 C 401.88916 362.69155 401.84297 362.56872 401.75067 362.48795 C 401.66221 362.40719 401.5407 362.36703 401.38687 362.36703 C 401.22919 362.36703 401.07539 362.40351 400.9254 362.47658 C 400.77541 362.54965 400.61793 362.65307 400.45256 362.78767 L 399.9792 362.22854 C 400.09843 362.1247 400.22361 362.02812 400.35437 361.93966 C 400.48898 361.8512 400.64278 361.78008 400.81584 361.72624 C 400.99276 361.66857 401.20429 361.63994 401.45043 361.63994 z M 406.82065 361.63994 C 407.2437 361.63994 407.57806 361.72629 407.8242 361.89936 C 408.07419 362.06857 408.19937 362.30923 408.19937 362.62076 C 408.19937 362.90536 408.11302 363.13212 407.93996 363.30134 C 407.77074 363.47055 407.56104 363.58603 407.31106 363.64757 L 407.31106 363.66462 C 407.6418 363.70309 407.89166 363.80334 408.06088 363.96486 C 408.23395 364.12639 408.3203 364.34344 408.3203 364.6165 C 408.3203 364.85496 408.26072 365.07069 408.1415 365.26298 C 408.02612 365.45143 407.84554 365.60103 407.59941 365.71256 C 407.35712 365.82024 407.04349 365.87431 406.6589 365.87431 C 406.21278 365.87431 405.81699 365.7995 405.47086 365.64952 L 405.47086 364.91106 C 405.64776 364.99951 405.83201 365.06645 406.02431 365.1126 C 406.22045 365.15873 406.40154 365.18184 406.56691 365.18184 C 406.87843 365.18184 407.09549 365.1283 407.21855 365.02061 C 407.34547 364.91293 407.40924 364.76097 407.40924 364.56483 C 407.40924 364.44945 407.38009 364.35339 407.32242 364.27647 C 407.26476 364.19571 407.16318 364.13613 407.01702 364.09767 C 406.87472 364.05534 406.67473 364.03411 406.41705 364.03411 L 406.10544 364.03411 L 406.10544 363.3649 L 406.42274 363.3649 C 406.67657 363.3649 406.86869 363.34179 406.99945 363.29565 C 407.13405 363.24565 407.22459 363.18004 407.27075 363.09928 C 407.32075 363.01467 407.34568 362.91861 407.34568 362.81093 C 407.34568 362.66478 407.29949 362.55114 407.20719 362.47038 C 407.11873 362.38577 406.96861 362.34377 406.75708 362.34377 C 406.56094 362.34377 406.39008 362.37841 406.24394 362.44764 C 406.10164 362.51304 405.98013 362.57814 405.88014 362.6435 L 405.47654 362.04353 C 405.63808 361.92816 405.82652 361.8321 406.04188 361.75518 C 406.2611 361.67827 406.52067 361.63994 406.82065 361.63994 z M 397.52922 362.59699 L 396.952 364.27027 L 398.10387 364.27027 L 397.52922 362.59699 z M 403.64875 364.72657 L 404.66264 364.72657 L 404.66264 365.81643 L 403.64875 365.81643 L 403.64875 364.72657 z " /><path
       id="path8"
       style="fill:#000000;stroke-width:0.264583"
       d="M 364.28577 409.1497 C 363.67 409.16051 363.00055 409.20365 362.30915 409.24685 C 360.92636 409.33326 361.35825 410.28395 360.32116 411.40745 C 359.28407 412.53097 359.284 412.61761 358.9383 413.04972 C 358.59262 413.48184 357.03707 412.96352 355.99998 412.87712 C 354.96289 412.79071 353.66659 413.13644 352.71594 413.22284 C 351.76527 413.30928 352.02421 413.4819 351.50568 414.43258 C 350.98712 415.38325 350.55533 416.24736 350.20963 416.67948 C 349.86395 417.11156 348.56724 416.76578 346.49306 416.76578 C 344.41889 416.76578 344.15994 416.42002 342.69071 415.72863 C 341.22151 415.03721 339.92491 415.55618 338.19641 415.81545 C 336.46794 416.07471 336.55444 416.59323 335.25809 417.28461 C 333.96174 417.97602 333.96161 418.32152 332.83808 419.18578 C 331.71455 420.05002 331.02324 420.4824 329.55404 421.51949 C 328.08483 422.55658 328.1715 422.38329 326.87514 422.90184 C 325.57876 423.42037 325.57856 423.42058 323.07227 424.1984 C 320.56598 424.97621 320.73865 424.80343 319.96083 424.88983 C 319.18301 424.97625 317.1954 424.63038 315.20763 424.2847 C 313.2199 423.939 309.24426 423.93898 308.12073 423.93898 C 306.99723 423.93898 306.21976 424.37142 305.35552 424.80353 C 304.49129 425.23565 303.71318 425.75427 302.33038 426.18639 C 300.94759 426.6185 300.51544 425.92696 299.47836 425.58126 C 298.44127 425.23555 298.52762 424.71707 298.0955 424.1121 C 297.66339 423.50713 297.14517 423.24755 297.14517 423.24755 C 297.14517 423.24755 292.73736 420.74146 291.18171 420.22293 C 289.74764 419.74488 289.70931 419.85459 289.71203 419.87463 C 289.7121 419.87491 289.71196 419.87596 289.71203 419.87618 L 289.71255 419.8767 L 289.71255 419.87721 L 288.4165 421.08696 C 288.4165 421.08696 286.34201 420.74161 285.39137 420.48234 C 284.44069 420.22308 284.78623 419.6178 284.78623 419.6178 C 284.78623 419.6178 285.21851 418.84005 285.39137 418.14864 C 285.56422 417.45725 286.0829 417.19815 285.9965 416.59318 C 285.91006 415.98821 285.56419 415.72861 284.69993 415.38291 C 283.83569 415.03724 282.45299 414.95117 281.76161 415.12402 C 281.0702 415.29685 279.86039 415.46973 279.16901 415.46973 C 278.47762 415.46973 277.26754 415.90164 276.40328 416.33376 C 275.53905 416.7659 275.79815 417.37091 275.79815 417.37091 C 275.79815 417.37091 275.71171 419.96384 275.45244 421.17378 C 275.19318 422.38372 273.72392 422.81543 272.60042 423.24755 C 271.47689 423.67969 270.61286 423.24777 268.88436 422.72924 C 267.15589 422.21068 268.19287 422.03785 266.81007 417.71662 C 265.42728 413.39542 264.73596 416.24761 263.18032 416.50688 C 261.6247 416.76617 262.5756 416.8521 260.84713 419.7041 C 259.11864 422.5561 259.03197 422.12443 258.51342 423.33437 C 257.99488 424.54431 256.69862 424.71712 255.5751 425.14924 C 254.45156 425.58136 254.62463 425.92708 254.36535 427.65555 C 254.10608 429.38405 254.36535 429.21082 254.36535 430.42076 C 254.36535 431.63069 253.84657 431.37177 252.37736 432.32245 C 250.90815 433.27312 252.8094 433.35935 253.15509 433.87791 C 253.50079 434.39644 254.45155 435.34698 254.88367 436.1248 C 255.31579 436.90262 254.45158 437.24826 253.06879 437.59396 C 251.686 437.93967 252.55048 438.19909 252.55048 438.19909 L 253.93282 440.44598 C 253.93282 440.44598 255.05647 441.05087 256.35283 441.56943 C 257.64919 442.08796 259.11857 442.69316 259.46427 443.21171 C 259.80997 443.73024 259.98248 444.24901 260.4146 444.85398 C 260.84672 445.45895 261.97034 445.97718 262.48889 446.15003 C 263.00745 446.32289 263.87166 445.89086 264.64948 445.3723 C 265.42727 444.85377 266.29179 443.29838 266.63747 443.03911 C 266.98318 442.77985 268.97057 443.55743 269.74839 443.90314 C 270.52621 444.24884 272.16855 446.15005 272.42782 446.84146 C 272.68708 447.53284 274.502 449.34767 274.93412 449.43407 C 275.36623 449.52051 276.48988 448.65656 277.00841 448.13802 C 277.52697 447.61947 278.04551 446.92772 279.16901 446.23633 C 280.29253 445.54492 282.10751 447.18709 282.71246 448.31062 C 283.31742 449.43412 283.92232 450.90342 284.18162 451.85407 C 284.44088 452.80474 284.78666 453.75545 285.56448 454.7061 C 286.34227 455.65678 287.12007 455.74331 289.53995 457.1261 C 291.95984 458.50889 290.49064 457.47197 292.04626 457.73123 C 293.6019 457.9905 293.60163 457.55812 294.72516 457.55812 C 295.84866 457.55812 295.67576 458.59517 295.84861 459.37299 C 296.02146 460.15081 296.45365 461.10137 297.23147 461.9656 C 298.00929 462.82984 299.21932 462.39788 301.12064 462.57073 C 303.02197 462.74358 303.45388 462.91661 304.49097 463.52158 C 305.52805 464.12655 304.14551 464.99065 303.97266 465.76847 C 303.79981 466.54627 305.78761 466.02774 307.1704 465.76847 C 308.55319 465.50918 310.973 465.76847 313.65217 465.76847 C 316.33131 465.76847 316.24459 466.28721 317.80024 467.06503 C 319.35588 467.84286 320.91186 468.8797 322.20824 469.74394 C 323.50459 470.60817 325.49217 472.85545 325.92429 474.23824 C 326.35641 475.62103 326.61559 476.48515 327.04774 477.17656 C 327.47985 477.86794 328.94925 479.42365 330.50489 480.3743 C 332.06051 481.32498 335.51742 482.01596 336.29524 482.10236 C 337.07306 482.18877 341.99907 482.27558 342.86331 481.84346 C 343.72757 481.41135 344.5921 481.23858 346.23416 481.41144 C 347.87622 481.58426 348.48085 482.88051 349.34508 483.65833 C 350.20932 484.43612 351.59255 484.52261 352.62964 484.34976 C 353.66672 484.1769 353.06124 482.4483 352.97484 481.58404 C 352.88843 480.71981 352.62922 479.85538 352.54282 478.12689 C 352.45638 476.39842 352.8887 476.05299 353.49367 473.97882 C 354.09864 471.90464 354.61708 472.50934 356.08628 471.2994 C 357.55551 470.08946 359.11133 469.31187 360.23486 468.27478 C 361.35836 467.2377 361.4447 465.76845 361.3583 465.07704 C 361.27188 464.38566 361.27169 463.26226 360.40746 463.17586 C 359.5432 463.08942 359.1112 463.52135 357.46914 463.69418 C 355.82709 463.86703 355.91337 462.83025 355.39484 462.05242 C 354.87627 461.27463 355.04902 460.06424 355.48114 458.76786 C 355.91326 457.47151 356.4319 458.1632 357.20972 457.47182 C 357.98754 456.78041 357.38268 456.34832 356.77771 455.31123 C 356.17274 454.27411 356.17292 455.31113 355.22225 455.39753 C 354.27156 455.48394 354.79007 455.48373 354.1851 456.26156 C 353.58013 457.03938 352.36992 456.17522 351.85139 455.48383 C 351.33283 454.79245 351.67879 454.36062 351.67879 453.84207 C 351.67879 453.32351 351.07366 452.4592 351.07366 452.4592 C 351.07366 452.4592 348.9996 451.76749 348.82677 451.24894 C 348.65392 450.73041 349.77762 449.9529 349.77762 449.9529 C 349.77762 449.9529 350.90108 447.87844 351.24678 447.27347 C 351.59246 446.6685 352.45665 444.85364 352.71594 442.95229 C 352.97521 441.05097 353.14785 440.79177 353.57997 439.66825 C 354.01209 438.54475 354.79014 437.76702 355.56796 436.72993 C 356.34578 435.69284 356.95061 434.39663 357.46914 432.66816 C 357.9877 430.93967 358.67914 428.60607 358.852 427.05042 C 359.02485 425.4948 360.92592 424.28505 361.18519 423.68008 C 361.44448 423.07511 363.1732 420.22312 363.86461 418.66747 C 364.55599 417.11183 365.42008 415.55614 365.76579 415.12402 C 366.11072 414.69284 367.66006 410.21765 367.66696 410.1977 C 367.66113 410.19188 366.88597 409.41902 365.9389 409.24685 C 365.46357 409.16043 364.90155 409.1389 364.28577 409.1497 z M 316.02154 441.17979 L 317.31448 441.17979 L 318.87201 445.38522 L 317.78215 445.38522 L 317.51705 444.61886 L 315.82155 444.61886 L 315.55387 445.38522 L 314.46401 445.38522 L 316.02154 441.17979 z M 320.59077 441.20873 C 320.85999 441.20873 321.09043 441.2586 321.28271 441.35859 C 321.47886 441.45474 321.62898 441.58728 321.73282 441.7565 C 321.8405 441.92187 321.89456 442.11032 321.89456 442.32184 C 321.89456 442.54875 321.84837 442.75661 321.75607 442.94506 C 321.66762 443.1335 321.53691 443.32011 321.36385 443.50471 C 321.19463 443.68932 320.98862 443.89298 320.74631 444.11604 L 320.2156 444.61214 L 320.2156 444.65245 L 322.0098 444.65245 L 322.0098 445.38522 L 319.13091 445.38522 L 319.13091 444.77957 L 320.16392 443.73519 C 320.37159 443.51982 320.53878 443.34109 320.6657 443.19879 C 320.79261 443.05264 320.885 442.92194 320.94268 442.80656 C 321.00035 442.68734 321.02898 442.56031 321.02898 442.42571 C 321.02898 442.26033 320.9828 442.1375 320.89049 442.05674 C 320.80203 441.97598 320.68104 441.9353 320.52721 441.9353 C 320.36953 441.9353 320.21573 441.97178 320.06573 442.04485 C 319.91575 442.11792 319.75775 442.22185 319.59238 442.35646 L 319.11954 441.79681 C 319.23877 441.69297 319.36395 441.5969 319.49471 441.50845 C 319.62932 441.41999 319.78312 441.34887 319.95618 441.29503 C 320.13309 441.23736 320.34463 441.20873 320.59077 441.20873 z M 325.96098 441.20873 C 326.38404 441.20873 326.7184 441.29508 326.96454 441.46814 C 327.21453 441.63736 327.33971 441.8775 327.33971 442.18903 C 327.33971 442.47363 327.25284 442.70091 327.07978 442.87013 C 326.91056 443.03934 326.70086 443.15482 326.45087 443.21636 L 326.45087 443.23341 C 326.78162 443.27188 327.032 443.37213 327.20122 443.53365 C 327.37428 443.69518 327.46063 443.91223 327.46063 444.18529 C 327.46063 444.42374 327.40105 444.63896 327.28183 444.83125 C 327.16645 445.0197 326.98588 445.16981 326.73975 445.28135 C 326.49745 445.38903 326.18383 445.44309 325.79924 445.44309 C 325.35312 445.44309 324.95681 445.36777 324.61068 445.21779 L 324.61068 444.47933 C 324.78758 444.56778 324.97235 444.63524 325.16465 444.68138 C 325.36079 444.72752 325.54136 444.75063 325.70673 444.75063 C 326.01825 444.75063 326.23582 444.69657 326.35889 444.58888 C 326.4858 444.4812 326.54906 444.32924 326.54906 444.1331 C 326.54906 444.01772 326.52043 443.92166 326.46276 443.84474 C 326.40509 443.76398 326.303 443.7044 326.15684 443.66594 C 326.01454 443.62361 325.81455 443.60238 325.55687 443.60238 L 325.24526 443.60238 L 325.24526 442.93317 L 325.56256 442.93317 C 325.81639 442.93317 326.00903 442.91006 326.13978 442.86392 C 326.27439 442.81392 326.36441 442.74883 326.41057 442.66807 C 326.46057 442.58346 326.4855 442.4874 326.4855 442.37972 C 326.4855 442.23356 326.43931 442.11993 326.34701 442.03917 C 326.25855 441.95455 326.10895 441.91204 325.89742 441.91204 C 325.70128 441.91204 325.5299 441.94668 325.38376 442.01591 C 325.24146 442.08131 325.12046 442.14693 325.02047 442.21228 L 324.61636 441.61232 C 324.77789 441.49695 324.96633 441.40089 325.1817 441.32397 C 325.40092 441.24705 325.66101 441.20873 325.96098 441.20873 z M 316.66956 442.16578 L 316.09182 443.83854 L 317.2442 443.83854 L 316.66956 442.16578 z M 322.78857 444.29484 L 323.80297 444.29484 L 323.80297 445.38522 L 322.78857 445.38522 L 322.78857 444.29484 z " /></g></svg>
