<?xml version="1.0" encoding="UTF-8"?>
<svg version="1.1" xmlns="http://www.w3.org/2000/svg" width="1354" height="1398">
<path d="M0 0 C0.70161255 0.10654907 1.4032251 0.21309814 2.12609863 0.32287598 C83.26389463 12.70061218 160.1147003 46.47127954 224 98 C224.96550781 98.77085937 225.93101562 99.54171875 226.92578125 100.3359375 C232.5294505 104.85374722 237.91208732 109.56108844 243.19921875 114.4453125 C245.30898425 116.36970112 247.44109047 118.23405465 249.609375 120.08984375 C254.63837227 124.47740844 259.33902546 129.18884981 264.0456543 133.9152832 C265.5599258 135.43491668 267.0794743 136.94912517 268.59960938 138.46289062 C273.94387792 143.80323204 279.1035477 149.24233452 284 155 C284.92514779 156.04858588 285.85215321 157.09553652 286.78125 158.140625 C295.43718483 167.99227929 303.26724738 178.41545209 311 189 C311.53657227 189.7312207 312.07314453 190.46244141 312.62597656 191.21582031 C326.01077317 209.52962138 337.44652111 228.94011428 348 249 C348.45584473 249.85577637 348.91168945 250.71155273 349.38134766 251.59326172 C374.3053289 298.59815043 389.32904318 350.44121961 396.71289062 402.97723389 C396.97866052 404.84965739 397.25826118 406.72010369 397.5390625 408.59033203 C403.53542522 449.79747939 402.21722833 494.90864986 396 536 C395.82339844 537.21945312 395.64679687 538.43890625 395.46484375 539.6953125 C385.68448603 605.62216825 360.27540191 667.67405157 324.86523438 723.83642578 C321.30779439 729.47940788 317.83628186 735.17262116 314.375 740.875 C309.27906922 749.26809229 304.15227107 757.64137465 299 766 C293.3972088 775.09094158 287.82663657 784.20060013 282.2824707 793.32739258 C277.94386533 800.46379592 273.57085198 807.57850977 269.1875 814.6875 C263.15737071 824.46804874 257.1795127 834.27881925 251.22592163 844.10604858 C246.17956202 852.43380315 241.08612955 860.73042116 235.94580078 869.00048828 C231.47813306 876.20031196 227.07795177 883.44044928 222.6875 890.6875 C216.43681907 901.00504987 210.14069832 911.29295886 203.80932617 921.5612793 C199.51632025 928.52687886 195.2480198 935.50688301 191 942.5 C186.09143755 950.58050648 181.14961822 958.63977611 176.1875 966.6875 C170.58839245 975.7697733 165.02904657 984.87500524 159.5 994 C153.31138221 1004.21353394 147.0763487 1014.39725221 140.80859375 1024.5625 C136.51580532 1031.52767648 132.24778993 1038.50729849 128 1045.5 C122.3555923 1054.79141482 116.66475318 1064.05355184 110.9609375 1073.30859375 C106.04003116 1081.29794169 101.15401063 1089.30787533 96.2824707 1097.32739258 C91.9438652 1104.46379614 87.57081995 1111.57848987 83.1875 1118.6875 C77.58839245 1127.7697733 72.02904657 1136.87500524 66.5 1146 C60.31138221 1156.21353394 54.0763487 1166.39725221 47.80859375 1176.5625 C43.5158054 1183.52767635 39.24777344 1190.50728857 35 1197.5 C30.09143769 1205.58050623 25.14965449 1213.63979862 20.1875 1221.6875 C14.88993656 1230.27986593 9.62673541 1238.89177695 4.39587402 1247.52484131 C1.268173 1252.6858123 -1.86513172 1257.84337998 -5 1263 C-5.62100586 1264.02158203 -6.24201172 1265.04316406 -6.88183594 1266.09570312 C-19.88129344 1287.43430202 -19.88129344 1287.43430202 -26 1295 C-26.51046875 1295.63550781 -27.0209375 1296.27101563 -27.546875 1296.92578125 C-35.57096042 1305.88336176 -48.49194817 1312.32360637 -60.40917969 1313.17138672 C-79.39690678 1314.13344069 -95.38713234 1311.01726756 -109.9375 1297.875 C-116.64288123 1290.7846208 -121.34399858 1282.23079619 -126.29248047 1273.875 C-128.52766777 1270.11155053 -130.80635026 1266.37547373 -133.08691406 1262.6394043 C-134.83932586 1259.76855311 -136.58585879 1256.89418088 -138.33203125 1254.01953125 C-142.19805052 1247.66530396 -146.09740738 1241.33181003 -150 1235 C-155.60275161 1225.90903389 -161.17336328 1216.79940012 -166.7175293 1207.67260742 C-171.05613467 1200.53620408 -175.42914802 1193.42149023 -179.8125 1186.3125 C-185.84262929 1176.53195126 -191.8204873 1166.72118075 -197.77407837 1156.89395142 C-202.31173647 1149.40568149 -206.87781452 1141.93644732 -211.5 1134.5 C-216.49120511 1126.46985191 -221.41343872 1118.39908139 -226.3125 1110.3125 C-232.56318093 1099.99495013 -238.85930168 1089.70704114 -245.19067383 1079.4387207 C-250.0625197 1071.53392671 -254.89747586 1063.60739481 -259.71826172 1055.67138672 C-264.05663845 1048.53539949 -268.42942911 1041.42110619 -272.8125 1034.3125 C-278.77245385 1024.64490044 -284.68353833 1014.94896316 -290.56890869 1005.23590088 C-296.40200089 995.61094882 -302.28455736 986.01741866 -308.19140625 976.4375 C-313.06303876 968.53313183 -317.89772224 960.60698922 -322.71826172 952.67138672 C-327.05663832 945.53539971 -331.42939708 938.4210863 -335.8125 931.3125 C-341.84262929 921.53195126 -347.8204873 911.72118075 -353.77407837 901.89395142 C-358.31173647 894.40568149 -362.87781452 886.93644732 -367.5 879.5 C-372.49120511 871.46985191 -377.41343872 863.39908139 -382.3125 855.3125 C-388.56318093 844.99495013 -394.85930168 834.70704114 -401.19067383 824.4387207 C-406.0625197 816.53392671 -410.89747586 808.60739481 -415.71826172 800.67138672 C-420.05663832 793.53539971 -424.42939708 786.4210863 -428.8125 779.3125 C-434.84096449 769.53465148 -440.8177157 759.72690378 -446.76904297 749.90200806 C-451.40965779 742.24254257 -456.08528399 734.60636408 -460.8125 727 C-462.87754911 723.66823895 -464.93956514 720.33461626 -467 717 C-467.50337891 716.18692383 -468.00675781 715.37384766 -468.52539062 714.53613281 C-476.66532675 701.34400269 -484.04304628 687.85144859 -491 674 C-491.44085938 673.12762695 -491.88171875 672.25525391 -492.3359375 671.35644531 C-499.56857989 656.95143256 -505.51513687 642.14993749 -511 627 C-511.57814453 625.41155273 -511.57814453 625.41155273 -512.16796875 623.79101562 C-522.98520791 593.72056751 -530.15584274 562.58000455 -534.71289062 530.97851562 C-534.9801453 529.13682184 -535.25913546 527.29684155 -535.5390625 525.45703125 C-541.22284345 486.61786142 -540.69315841 442.82396433 -535 404 C-534.79908288 402.57978562 -534.59841007 401.15953666 -534.39794922 399.73925781 C-525.75407085 339.36726 -505.79098534 281.68613153 -475 229 C-474.56236328 228.24895996 -474.12472656 227.49791992 -473.67382812 226.72412109 C-465.83320701 213.31665898 -457.13878118 200.54823696 -448 188 C-447.53577637 187.3601416 -447.07155273 186.7202832 -446.59326172 186.06103516 C-439.21196804 175.92332479 -431.35005093 166.35250506 -423 157 C-422.20851563 156.10796875 -421.41703125 155.2159375 -420.6015625 154.296875 C-418.4157932 151.85070719 -416.21225716 149.42223411 -414 147 C-413.54270508 146.49758789 -413.08541016 145.99517578 -412.61425781 145.47753906 C-404.18771008 136.22888911 -395.71145873 127.04769859 -386.1875 118.90625 C-383.97698742 116.97994618 -381.8242855 114.99796973 -379.67651367 113.00219727 C-373.98419876 107.72012315 -368.15186055 102.74644234 -362 98 C-361.41686035 97.54431641 -360.8337207 97.08863281 -360.23291016 96.61914062 C-341.02060081 81.60664113 -321.14424229 68.15777449 -300 56 C-299.02579102 55.43925781 -298.05158203 54.87851563 -297.04785156 54.30078125 C-245.83387431 25.09511322 -189.32554739 6.98748336 -131 -1 C-129.46327637 -1.22647217 -129.46327637 -1.22647217 -127.89550781 -1.45751953 C-86.48236455 -7.37277127 -41.28204036 -6.39853482 0 0 Z M-235.27636719 315.11962891 C-239.39637835 319.61429264 -243.12228481 324.39434807 -246.74121094 329.296875 C-247.97069396 330.96034931 -249.22216212 332.60527552 -250.4765625 334.25 C-278.97042666 372.20791779 -293.54982896 419.37496226 -293.3125 466.625 C-293.31034485 467.40580933 -293.3081897 468.18661865 -293.30596924 468.99108887 C-293.06587566 523.52980145 -272.73785313 577.67220713 -235.22265625 617.625 C-233.28109523 619.69963814 -231.44755747 621.82171445 -229.625 624 C-196.00111283 662.37170457 -143.04318008 685.61362517 -93 691 C-92.02160156 691.11085938 -91.04320312 691.22171875 -90.03515625 691.3359375 C-31.36864209 696.92322456 27.84620238 678.31154371 73.22265625 640.93774414 C82.75300395 632.93717991 92.12839753 624.66802627 100 615 C100.96006886 613.87425861 101.92110641 612.74934304 102.8828125 611.625 C136.74077534 571.57531262 155.20740157 520.20247297 155.25 467.875 C155.25067474 467.12666901 155.25134949 466.37833801 155.25204468 465.60733032 C155.16620731 405.31500508 131.01860866 351.47271345 90 308 C89.19820312 307.1440625 88.39640625 306.288125 87.5703125 305.40625 C80.92900308 298.52541794 73.62100201 292.73683465 66 287 C65.04867188 286.27683594 64.09734375 285.55367188 63.1171875 284.80859375 C-12.61448343 228.39622663 -118.55525489 227.8205191 -235.27636719 315.11962891 Z " fill="#E04463" transform="translate(746,44)"/>
</svg>
